<mxfile host="app.diagrams.net" agent="Mozilla/5.0 (Windows NT 10.0; Win64; x64) AppleWebKit/537.36 (KHTML, like Gecko) Chrome/131.0.0.0 Safari/537.36 Edg/131.0.0.0" version="24.9.3">
  <diagram name="Page-1" id="-2oRTopbeBLAJZXDiGkC">
    <mxGraphModel dx="3576" dy="552" grid="1" gridSize="10" guides="1" tooltips="1" connect="1" arrows="1" fold="1" page="1" pageScale="1" pageWidth="850" pageHeight="1100" math="0" shadow="0">
      <root>
        <mxCell id="0" />
        <mxCell id="1" parent="0" />
        <mxCell id="pV8JznTByNGqoE5kzML4-47" value="1" style="edgeStyle=orthogonalEdgeStyle;rounded=0;orthogonalLoop=1;jettySize=auto;html=1;entryX=0;entryY=0.5;entryDx=0;entryDy=0;endArrow=none;endFill=0;" parent="1" source="pV8JznTByNGqoE5kzML4-12" target="pV8JznTByNGqoE5kzML4-46" edge="1">
          <mxGeometry relative="1" as="geometry" />
        </mxCell>
        <mxCell id="pV8JznTByNGqoE5kzML4-12" value="Customer" style="whiteSpace=wrap;html=1;align=center;" parent="1" vertex="1">
          <mxGeometry x="-540" y="690" width="100" height="40" as="geometry" />
        </mxCell>
        <mxCell id="pV8JznTByNGqoE5kzML4-56" value="1" style="edgeStyle=orthogonalEdgeStyle;rounded=0;orthogonalLoop=1;jettySize=auto;html=1;endArrow=none;endFill=0;" parent="1" source="pV8JznTByNGqoE5kzML4-13" target="pV8JznTByNGqoE5kzML4-55" edge="1">
          <mxGeometry relative="1" as="geometry" />
        </mxCell>
        <mxCell id="pV8JznTByNGqoE5kzML4-13" value="Products" style="whiteSpace=wrap;html=1;align=center;" parent="1" vertex="1">
          <mxGeometry x="180" y="960" width="100" height="40" as="geometry" />
        </mxCell>
        <mxCell id="pV8JznTByNGqoE5kzML4-14" value="Users" style="whiteSpace=wrap;html=1;align=center;" parent="1" vertex="1">
          <mxGeometry x="-160" y="390" width="100" height="40" as="geometry" />
        </mxCell>
        <mxCell id="pV8JznTByNGqoE5kzML4-41" value="1" style="edgeStyle=orthogonalEdgeStyle;rounded=0;orthogonalLoop=1;jettySize=auto;html=1;exitX=0.5;exitY=1;exitDx=0;exitDy=0;entryX=0.5;entryY=0;entryDx=0;entryDy=0;endArrow=none;endFill=0;" parent="1" source="pV8JznTByNGqoE5kzML4-19" target="pV8JznTByNGqoE5kzML4-40" edge="1">
          <mxGeometry relative="1" as="geometry" />
        </mxCell>
        <mxCell id="pV8JznTByNGqoE5kzML4-19" value="Departments" style="whiteSpace=wrap;html=1;align=center;" parent="1" vertex="1">
          <mxGeometry x="210" y="390" width="100" height="40" as="geometry" />
        </mxCell>
        <mxCell id="pV8JznTByNGqoE5kzML4-45" value="1" style="edgeStyle=orthogonalEdgeStyle;rounded=0;orthogonalLoop=1;jettySize=auto;html=1;exitX=0;exitY=0.5;exitDx=0;exitDy=0;entryX=1;entryY=0.5;entryDx=0;entryDy=0;endArrow=none;endFill=0;" parent="1" source="pV8JznTByNGqoE5kzML4-20" target="pV8JznTByNGqoE5kzML4-43" edge="1">
          <mxGeometry relative="1" as="geometry" />
        </mxCell>
        <mxCell id="pV8JznTByNGqoE5kzML4-62" value="1" style="edgeStyle=orthogonalEdgeStyle;rounded=0;orthogonalLoop=1;jettySize=auto;html=1;exitX=1;exitY=0.5;exitDx=0;exitDy=0;entryX=0;entryY=0.5;entryDx=0;entryDy=0;endArrow=none;endFill=0;" parent="1" source="pV8JznTByNGqoE5kzML4-20" target="pV8JznTByNGqoE5kzML4-61" edge="1">
          <mxGeometry relative="1" as="geometry" />
        </mxCell>
        <mxCell id="pV8JznTByNGqoE5kzML4-65" value="1" style="edgeStyle=orthogonalEdgeStyle;rounded=0;orthogonalLoop=1;jettySize=auto;html=1;exitX=0.5;exitY=1;exitDx=0;exitDy=0;entryX=0.5;entryY=0;entryDx=0;entryDy=0;endArrow=none;endFill=0;" parent="1" source="pV8JznTByNGqoE5kzML4-20" target="pV8JznTByNGqoE5kzML4-64" edge="1">
          <mxGeometry relative="1" as="geometry" />
        </mxCell>
        <mxCell id="pV8JznTByNGqoE5kzML4-20" value="Employees" style="whiteSpace=wrap;html=1;align=center;" parent="1" vertex="1">
          <mxGeometry x="210" y="690" width="100" height="40" as="geometry" />
        </mxCell>
        <mxCell id="pV8JznTByNGqoE5kzML4-50" value="1" style="edgeStyle=orthogonalEdgeStyle;rounded=0;orthogonalLoop=1;jettySize=auto;html=1;exitX=0.5;exitY=1;exitDx=0;exitDy=0;entryX=0.5;entryY=0;entryDx=0;entryDy=0;endArrow=none;endFill=0;" parent="1" source="pV8JznTByNGqoE5kzML4-21" target="pV8JznTByNGqoE5kzML4-49" edge="1">
          <mxGeometry relative="1" as="geometry" />
        </mxCell>
        <mxCell id="pV8JznTByNGqoE5kzML4-21" value="Sales" style="whiteSpace=wrap;html=1;align=center;" parent="1" vertex="1">
          <mxGeometry x="-170" y="690" width="100" height="40" as="geometry" />
        </mxCell>
        <mxCell id="pV8JznTByNGqoE5kzML4-81" value="M" style="edgeStyle=orthogonalEdgeStyle;rounded=0;orthogonalLoop=1;jettySize=auto;html=1;endArrow=none;endFill=0;" parent="1" source="pV8JznTByNGqoE5kzML4-22" target="pV8JznTByNGqoE5kzML4-79" edge="1">
          <mxGeometry relative="1" as="geometry" />
        </mxCell>
        <mxCell id="pV8JznTByNGqoE5kzML4-22" value="Orders" style="whiteSpace=wrap;html=1;align=center;" parent="1" vertex="1">
          <mxGeometry x="-540" y="960" width="100" height="40" as="geometry" />
        </mxCell>
        <mxCell id="pV8JznTByNGqoE5kzML4-54" value="M" style="edgeStyle=orthogonalEdgeStyle;rounded=0;orthogonalLoop=1;jettySize=auto;html=1;exitX=1;exitY=0.5;exitDx=0;exitDy=0;entryX=0;entryY=0.5;entryDx=0;entryDy=0;endArrow=none;endFill=0;" parent="1" source="pV8JznTByNGqoE5kzML4-23" target="pV8JznTByNGqoE5kzML4-52" edge="1">
          <mxGeometry relative="1" as="geometry" />
        </mxCell>
        <mxCell id="pV8JznTByNGqoE5kzML4-23" value="Order_Items" style="whiteSpace=wrap;html=1;align=center;" parent="1" vertex="1">
          <mxGeometry x="-170" y="960" width="100" height="40" as="geometry" />
        </mxCell>
        <mxCell id="pV8JznTByNGqoE5kzML4-24" value="Inventory" style="whiteSpace=wrap;html=1;align=center;" parent="1" vertex="1">
          <mxGeometry x="520" y="960" width="100" height="40" as="geometry" />
        </mxCell>
        <mxCell id="pV8JznTByNGqoE5kzML4-68" value="1" style="edgeStyle=orthogonalEdgeStyle;rounded=0;orthogonalLoop=1;jettySize=auto;html=1;endArrow=none;endFill=0;entryX=1;entryY=0.5;entryDx=0;entryDy=0;exitX=0;exitY=0.5;exitDx=0;exitDy=0;" parent="1" source="pV8JznTByNGqoE5kzML4-25" target="pV8JznTByNGqoE5kzML4-69" edge="1">
          <mxGeometry relative="1" as="geometry">
            <mxPoint x="575" y="148" as="targetPoint" />
            <Array as="points">
              <mxPoint x="280" y="150" />
              <mxPoint x="280" y="150" />
            </Array>
          </mxGeometry>
        </mxCell>
        <mxCell id="pV8JznTByNGqoE5kzML4-25" value="Graphic_Designs" style="whiteSpace=wrap;html=1;align=center;" parent="1" vertex="1">
          <mxGeometry x="280" y="130" width="100" height="40" as="geometry" />
        </mxCell>
        <mxCell id="pV8JznTByNGqoE5kzML4-59" value="M" style="edgeStyle=orthogonalEdgeStyle;rounded=0;orthogonalLoop=1;jettySize=auto;html=1;entryX=1;entryY=0.5;entryDx=0;entryDy=0;endArrow=none;endFill=0;" parent="1" source="pV8JznTByNGqoE5kzML4-26" target="pV8JznTByNGqoE5kzML4-58" edge="1">
          <mxGeometry relative="1" as="geometry" />
        </mxCell>
        <mxCell id="pV8JznTByNGqoE5kzML4-26" value="Production Orders" style="whiteSpace=wrap;html=1;align=center;" parent="1" vertex="1">
          <mxGeometry x="650" y="130" width="100" height="40" as="geometry" />
        </mxCell>
        <mxCell id="pV8JznTByNGqoE5kzML4-27" value="Attendance Records" style="whiteSpace=wrap;html=1;align=center;" parent="1" vertex="1">
          <mxGeometry x="550" y="690" width="100" height="40" as="geometry" />
        </mxCell>
        <mxCell id="pV8JznTByNGqoE5kzML4-28" value="Salary Records" style="whiteSpace=wrap;html=1;align=center;" parent="1" vertex="1">
          <mxGeometry x="210" y="880" width="100" height="40" as="geometry" />
        </mxCell>
        <mxCell id="pV8JznTByNGqoE5kzML4-29" value="Notifications" style="whiteSpace=wrap;html=1;align=center;" parent="1" vertex="1">
          <mxGeometry x="-160" y="580" width="100" height="40" as="geometry" />
        </mxCell>
        <mxCell id="pV8JznTByNGqoE5kzML4-30" value="Design_Approvals" style="whiteSpace=wrap;html=1;align=center;" parent="1" vertex="1">
          <mxGeometry x="-160" y="130" width="100" height="40" as="geometry" />
        </mxCell>
        <mxCell id="pV8JznTByNGqoE5kzML4-38" value="M" style="edgeStyle=orthogonalEdgeStyle;rounded=0;orthogonalLoop=1;jettySize=auto;html=1;exitX=0;exitY=0.5;exitDx=0;exitDy=0;entryX=1;entryY=0.5;entryDx=0;entryDy=0;endArrow=none;endFill=0;" parent="1" source="pV8JznTByNGqoE5kzML4-37" target="pV8JznTByNGqoE5kzML4-14" edge="1">
          <mxGeometry relative="1" as="geometry" />
        </mxCell>
        <mxCell id="pV8JznTByNGqoE5kzML4-39" value="1" style="edgeStyle=orthogonalEdgeStyle;rounded=0;orthogonalLoop=1;jettySize=auto;html=1;exitX=1;exitY=0.5;exitDx=0;exitDy=0;endArrow=none;endFill=0;" parent="1" source="pV8JznTByNGqoE5kzML4-37" target="pV8JznTByNGqoE5kzML4-19" edge="1">
          <mxGeometry relative="1" as="geometry" />
        </mxCell>
        <mxCell id="pV8JznTByNGqoE5kzML4-37" value="Assigned" style="shape=rhombus;perimeter=rhombusPerimeter;whiteSpace=wrap;html=1;align=center;" parent="1" vertex="1">
          <mxGeometry x="20" y="380" width="120" height="60" as="geometry" />
        </mxCell>
        <mxCell id="pV8JznTByNGqoE5kzML4-42" value="M" style="edgeStyle=orthogonalEdgeStyle;rounded=0;orthogonalLoop=1;jettySize=auto;html=1;exitX=0.5;exitY=1;exitDx=0;exitDy=0;entryX=0.5;entryY=0;entryDx=0;entryDy=0;endArrow=none;endFill=0;" parent="1" source="pV8JznTByNGqoE5kzML4-40" target="pV8JznTByNGqoE5kzML4-20" edge="1">
          <mxGeometry relative="1" as="geometry" />
        </mxCell>
        <mxCell id="pV8JznTByNGqoE5kzML4-40" value="Assigned" style="shape=rhombus;perimeter=rhombusPerimeter;whiteSpace=wrap;html=1;align=center;" parent="1" vertex="1">
          <mxGeometry x="200" y="530" width="120" height="60" as="geometry" />
        </mxCell>
        <mxCell id="pV8JznTByNGqoE5kzML4-44" value="M" style="edgeStyle=orthogonalEdgeStyle;rounded=0;orthogonalLoop=1;jettySize=auto;html=1;exitX=0;exitY=0.5;exitDx=0;exitDy=0;entryX=1;entryY=0.5;entryDx=0;entryDy=0;endArrow=none;endFill=0;" parent="1" source="pV8JznTByNGqoE5kzML4-43" target="pV8JznTByNGqoE5kzML4-21" edge="1">
          <mxGeometry relative="1" as="geometry" />
        </mxCell>
        <mxCell id="pV8JznTByNGqoE5kzML4-43" value="Makes" style="shape=rhombus;perimeter=rhombusPerimeter;whiteSpace=wrap;html=1;align=center;" parent="1" vertex="1">
          <mxGeometry y="680" width="120" height="60" as="geometry" />
        </mxCell>
        <mxCell id="pV8JznTByNGqoE5kzML4-48" value="M" style="edgeStyle=orthogonalEdgeStyle;rounded=0;orthogonalLoop=1;jettySize=auto;html=1;exitX=1;exitY=0.5;exitDx=0;exitDy=0;endArrow=none;endFill=0;" parent="1" source="pV8JznTByNGqoE5kzML4-46" target="pV8JznTByNGqoE5kzML4-21" edge="1">
          <mxGeometry relative="1" as="geometry" />
        </mxCell>
        <mxCell id="pV8JznTByNGqoE5kzML4-46" value="Makes" style="shape=rhombus;perimeter=rhombusPerimeter;whiteSpace=wrap;html=1;align=center;" parent="1" vertex="1">
          <mxGeometry x="-360" y="680" width="120" height="60" as="geometry" />
        </mxCell>
        <mxCell id="pV8JznTByNGqoE5kzML4-51" value="M" style="edgeStyle=orthogonalEdgeStyle;rounded=0;orthogonalLoop=1;jettySize=auto;html=1;exitX=0.5;exitY=1;exitDx=0;exitDy=0;entryX=0.5;entryY=0;entryDx=0;entryDy=0;endArrow=none;endFill=0;" parent="1" source="pV8JznTByNGqoE5kzML4-49" target="pV8JznTByNGqoE5kzML4-23" edge="1">
          <mxGeometry relative="1" as="geometry" />
        </mxCell>
        <mxCell id="pV8JznTByNGqoE5kzML4-49" value="Involves" style="shape=rhombus;perimeter=rhombusPerimeter;whiteSpace=wrap;html=1;align=center;" parent="1" vertex="1">
          <mxGeometry x="-180" y="790" width="120" height="60" as="geometry" />
        </mxCell>
        <mxCell id="pV8JznTByNGqoE5kzML4-53" value="1" style="edgeStyle=orthogonalEdgeStyle;rounded=0;orthogonalLoop=1;jettySize=auto;html=1;exitX=1;exitY=0.5;exitDx=0;exitDy=0;entryX=0;entryY=0.5;entryDx=0;entryDy=0;endArrow=none;endFill=0;" parent="1" source="pV8JznTByNGqoE5kzML4-52" target="pV8JznTByNGqoE5kzML4-13" edge="1">
          <mxGeometry relative="1" as="geometry" />
        </mxCell>
        <mxCell id="pV8JznTByNGqoE5kzML4-52" value="part of&amp;nbsp;" style="shape=rhombus;perimeter=rhombusPerimeter;whiteSpace=wrap;html=1;align=center;" parent="1" vertex="1">
          <mxGeometry y="950" width="120" height="60" as="geometry" />
        </mxCell>
        <mxCell id="pV8JznTByNGqoE5kzML4-57" value="1" style="edgeStyle=orthogonalEdgeStyle;rounded=0;orthogonalLoop=1;jettySize=auto;html=1;exitX=1;exitY=0.5;exitDx=0;exitDy=0;entryX=0;entryY=0.5;entryDx=0;entryDy=0;endArrow=none;endFill=0;" parent="1" source="pV8JznTByNGqoE5kzML4-55" target="pV8JznTByNGqoE5kzML4-24" edge="1">
          <mxGeometry relative="1" as="geometry" />
        </mxCell>
        <mxCell id="pV8JznTByNGqoE5kzML4-55" value="Records" style="shape=rhombus;perimeter=rhombusPerimeter;whiteSpace=wrap;html=1;align=center;" parent="1" vertex="1">
          <mxGeometry x="340" y="950" width="120" height="60" as="geometry" />
        </mxCell>
        <mxCell id="pV8JznTByNGqoE5kzML4-60" value="1" style="edgeStyle=orthogonalEdgeStyle;rounded=0;orthogonalLoop=1;jettySize=auto;html=1;exitX=0;exitY=0.5;exitDx=0;exitDy=0;entryX=1;entryY=0.5;entryDx=0;entryDy=0;endArrow=none;endFill=0;" parent="1" source="pV8JznTByNGqoE5kzML4-58" target="pV8JznTByNGqoE5kzML4-25" edge="1">
          <mxGeometry relative="1" as="geometry" />
        </mxCell>
        <mxCell id="pV8JznTByNGqoE5kzML4-58" value="Linked" style="shape=rhombus;perimeter=rhombusPerimeter;whiteSpace=wrap;html=1;align=center;" parent="1" vertex="1">
          <mxGeometry x="450" y="120" width="120" height="60" as="geometry" />
        </mxCell>
        <mxCell id="pV8JznTByNGqoE5kzML4-63" value="M" style="edgeStyle=orthogonalEdgeStyle;rounded=0;orthogonalLoop=1;jettySize=auto;html=1;exitX=1;exitY=0.5;exitDx=0;exitDy=0;entryX=0;entryY=0.5;entryDx=0;entryDy=0;endArrow=none;endFill=0;" parent="1" source="pV8JznTByNGqoE5kzML4-61" target="pV8JznTByNGqoE5kzML4-27" edge="1">
          <mxGeometry relative="1" as="geometry" />
        </mxCell>
        <mxCell id="pV8JznTByNGqoE5kzML4-61" value="Can Have" style="shape=rhombus;perimeter=rhombusPerimeter;whiteSpace=wrap;html=1;align=center;" parent="1" vertex="1">
          <mxGeometry x="380" y="680" width="120" height="60" as="geometry" />
        </mxCell>
        <mxCell id="pV8JznTByNGqoE5kzML4-66" value="M" style="edgeStyle=orthogonalEdgeStyle;rounded=0;orthogonalLoop=1;jettySize=auto;html=1;endArrow=none;endFill=0;" parent="1" source="pV8JznTByNGqoE5kzML4-64" target="pV8JznTByNGqoE5kzML4-28" edge="1">
          <mxGeometry relative="1" as="geometry" />
        </mxCell>
        <mxCell id="pV8JznTByNGqoE5kzML4-64" value="Records" style="shape=rhombus;perimeter=rhombusPerimeter;whiteSpace=wrap;html=1;align=center;" parent="1" vertex="1">
          <mxGeometry x="200" y="760" width="120" height="60" as="geometry" />
        </mxCell>
        <mxCell id="pV8JznTByNGqoE5kzML4-70" value="1" style="edgeStyle=orthogonalEdgeStyle;rounded=0;orthogonalLoop=1;jettySize=auto;html=1;exitX=0;exitY=0.5;exitDx=0;exitDy=0;entryX=1;entryY=0.5;entryDx=0;entryDy=0;endArrow=none;endFill=0;" parent="1" source="pV8JznTByNGqoE5kzML4-69" target="pV8JznTByNGqoE5kzML4-30" edge="1">
          <mxGeometry relative="1" as="geometry" />
        </mxCell>
        <mxCell id="pV8JznTByNGqoE5kzML4-69" value="Linked" style="shape=rhombus;perimeter=rhombusPerimeter;whiteSpace=wrap;html=1;align=center;" parent="1" vertex="1">
          <mxGeometry x="30" y="120" width="120" height="60" as="geometry" />
        </mxCell>
        <mxCell id="pV8JznTByNGqoE5kzML4-73" value="1" style="edgeStyle=orthogonalEdgeStyle;rounded=0;orthogonalLoop=1;jettySize=auto;html=1;" parent="1" source="pV8JznTByNGqoE5kzML4-72" target="pV8JznTByNGqoE5kzML4-14" edge="1">
          <mxGeometry relative="1" as="geometry">
            <mxPoint x="-160.00000000000006" y="412" as="targetPoint" />
          </mxGeometry>
        </mxCell>
        <mxCell id="pV8JznTByNGqoE5kzML4-74" value="M" style="edgeStyle=orthogonalEdgeStyle;rounded=0;orthogonalLoop=1;jettySize=auto;html=1;endArrow=none;endFill=0;" parent="1" source="pV8JznTByNGqoE5kzML4-72" target="pV8JznTByNGqoE5kzML4-30" edge="1">
          <mxGeometry relative="1" as="geometry" />
        </mxCell>
        <mxCell id="pV8JznTByNGqoE5kzML4-72" value="Assigned" style="shape=rhombus;perimeter=rhombusPerimeter;whiteSpace=wrap;html=1;align=center;" parent="1" vertex="1">
          <mxGeometry x="-170" y="270" width="120" height="60" as="geometry" />
        </mxCell>
        <mxCell id="pV8JznTByNGqoE5kzML4-77" value="1" style="edgeStyle=orthogonalEdgeStyle;rounded=0;orthogonalLoop=1;jettySize=auto;html=1;endArrow=none;endFill=0;" parent="1" source="pV8JznTByNGqoE5kzML4-76" target="pV8JznTByNGqoE5kzML4-14" edge="1">
          <mxGeometry relative="1" as="geometry" />
        </mxCell>
        <mxCell id="pV8JznTByNGqoE5kzML4-78" value="M" style="edgeStyle=orthogonalEdgeStyle;rounded=0;orthogonalLoop=1;jettySize=auto;html=1;endArrow=none;endFill=0;" parent="1" source="pV8JznTByNGqoE5kzML4-76" target="pV8JznTByNGqoE5kzML4-29" edge="1">
          <mxGeometry relative="1" as="geometry" />
        </mxCell>
        <mxCell id="pV8JznTByNGqoE5kzML4-76" value="Receive" style="shape=rhombus;perimeter=rhombusPerimeter;whiteSpace=wrap;html=1;align=center;" parent="1" vertex="1">
          <mxGeometry x="-170" y="470" width="120" height="60" as="geometry" />
        </mxCell>
        <mxCell id="pV8JznTByNGqoE5kzML4-80" value="1" style="edgeStyle=orthogonalEdgeStyle;rounded=0;orthogonalLoop=1;jettySize=auto;html=1;entryX=0.5;entryY=1;entryDx=0;entryDy=0;endArrow=none;endFill=0;" parent="1" source="pV8JznTByNGqoE5kzML4-79" target="pV8JznTByNGqoE5kzML4-12" edge="1">
          <mxGeometry relative="1" as="geometry" />
        </mxCell>
        <mxCell id="pV8JznTByNGqoE5kzML4-79" value="belongs to" style="shape=rhombus;perimeter=rhombusPerimeter;whiteSpace=wrap;html=1;align=center;" parent="1" vertex="1">
          <mxGeometry x="-550" y="840" width="120" height="60" as="geometry" />
        </mxCell>
        <mxCell id="pV8JznTByNGqoE5kzML4-86" value="1" style="edgeStyle=orthogonalEdgeStyle;rounded=0;orthogonalLoop=1;jettySize=auto;html=1;exitX=0.5;exitY=1;exitDx=0;exitDy=0;entryX=0.5;entryY=0;entryDx=0;entryDy=0;endArrow=none;endFill=0;" parent="1" source="pV8JznTByNGqoE5kzML4-87" target="pV8JznTByNGqoE5kzML4-91" edge="1">
          <mxGeometry relative="1" as="geometry" />
        </mxCell>
        <mxCell id="pV8JznTByNGqoE5kzML4-87" value="Departments" style="whiteSpace=wrap;html=1;align=center;" parent="1" vertex="1">
          <mxGeometry x="-1460" y="440" width="100" height="40" as="geometry" />
        </mxCell>
        <mxCell id="pV8JznTByNGqoE5kzML4-116" value="1" style="edgeStyle=orthogonalEdgeStyle;rounded=0;orthogonalLoop=1;jettySize=auto;html=1;exitX=0.5;exitY=1;exitDx=0;exitDy=0;entryX=0.5;entryY=0;entryDx=0;entryDy=0;endArrow=none;endFill=0;" parent="1" source="pV8JznTByNGqoE5kzML4-89" target="pV8JznTByNGqoE5kzML4-115" edge="1">
          <mxGeometry relative="1" as="geometry" />
        </mxCell>
        <mxCell id="pV8JznTByNGqoE5kzML4-167" value="M" style="edgeStyle=orthogonalEdgeStyle;rounded=0;orthogonalLoop=1;jettySize=auto;html=1;exitX=1;exitY=0.5;exitDx=0;exitDy=0;endArrow=none;endFill=0;" parent="1" source="pV8JznTByNGqoE5kzML4-89" target="pV8JznTByNGqoE5kzML4-158" edge="1">
          <mxGeometry relative="1" as="geometry" />
        </mxCell>
        <mxCell id="pV8JznTByNGqoE5kzML4-89" value="Employees" style="whiteSpace=wrap;html=1;align=center;" parent="1" vertex="1">
          <mxGeometry x="-1460" y="610" width="100" height="40" as="geometry" />
        </mxCell>
        <mxCell id="pV8JznTByNGqoE5kzML4-90" value="M" style="edgeStyle=orthogonalEdgeStyle;rounded=0;orthogonalLoop=1;jettySize=auto;html=1;exitX=0.5;exitY=1;exitDx=0;exitDy=0;entryX=0.5;entryY=0;entryDx=0;entryDy=0;endArrow=none;endFill=0;" parent="1" source="pV8JznTByNGqoE5kzML4-91" target="pV8JznTByNGqoE5kzML4-89" edge="1">
          <mxGeometry relative="1" as="geometry" />
        </mxCell>
        <mxCell id="pV8JznTByNGqoE5kzML4-91" value="Manages" style="shape=rhombus;perimeter=rhombusPerimeter;whiteSpace=wrap;html=1;align=center;" parent="1" vertex="1">
          <mxGeometry x="-1470" y="520" width="120" height="60" as="geometry" />
        </mxCell>
        <mxCell id="pV8JznTByNGqoE5kzML4-103" value="1" style="edgeStyle=orthogonalEdgeStyle;rounded=0;orthogonalLoop=1;jettySize=auto;html=1;exitX=0.5;exitY=1;exitDx=0;exitDy=0;endArrow=none;endFill=0;" parent="1" source="pV8JznTByNGqoE5kzML4-101" target="pV8JznTByNGqoE5kzML4-102" edge="1">
          <mxGeometry relative="1" as="geometry" />
        </mxCell>
        <mxCell id="pV8JznTByNGqoE5kzML4-101" value="Shops" style="whiteSpace=wrap;html=1;align=center;" parent="1" vertex="1">
          <mxGeometry x="-1460" y="260" width="100" height="40" as="geometry" />
        </mxCell>
        <mxCell id="pV8JznTByNGqoE5kzML4-104" value="M" style="edgeStyle=orthogonalEdgeStyle;rounded=0;orthogonalLoop=1;jettySize=auto;html=1;exitX=0.5;exitY=1;exitDx=0;exitDy=0;endArrow=none;endFill=0;" parent="1" source="pV8JznTByNGqoE5kzML4-102" target="pV8JznTByNGqoE5kzML4-87" edge="1">
          <mxGeometry relative="1" as="geometry" />
        </mxCell>
        <mxCell id="pV8JznTByNGqoE5kzML4-102" value="Contains" style="shape=rhombus;perimeter=rhombusPerimeter;whiteSpace=wrap;html=1;align=center;" parent="1" vertex="1">
          <mxGeometry x="-1470" y="340" width="120" height="60" as="geometry" />
        </mxCell>
        <mxCell id="pV8JznTByNGqoE5kzML4-119" value="M" style="edgeStyle=orthogonalEdgeStyle;rounded=0;orthogonalLoop=1;jettySize=auto;html=1;exitX=0.5;exitY=1;exitDx=0;exitDy=0;entryX=0.5;entryY=0;entryDx=0;entryDy=0;endArrow=none;endFill=0;" parent="1" source="pV8JznTByNGqoE5kzML4-106" target="pV8JznTByNGqoE5kzML4-118" edge="1">
          <mxGeometry relative="1" as="geometry" />
        </mxCell>
        <mxCell id="pV8JznTByNGqoE5kzML4-106" value="Employee Attendance" style="whiteSpace=wrap;html=1;align=center;" parent="1" vertex="1">
          <mxGeometry x="-1650" y="710" width="100" height="40" as="geometry" />
        </mxCell>
        <mxCell id="pV8JznTByNGqoE5kzML4-109" value="1" style="edgeStyle=orthogonalEdgeStyle;rounded=0;orthogonalLoop=1;jettySize=auto;html=1;exitX=1;exitY=0.5;exitDx=0;exitDy=0;endArrow=none;endFill=0;" parent="1" source="pV8JznTByNGqoE5kzML4-107" target="pV8JznTByNGqoE5kzML4-89" edge="1">
          <mxGeometry relative="1" as="geometry" />
        </mxCell>
        <mxCell id="pV8JznTByNGqoE5kzML4-107" value="Attendance of" style="shape=rhombus;perimeter=rhombusPerimeter;whiteSpace=wrap;html=1;align=center;" parent="1" vertex="1">
          <mxGeometry x="-1660" y="600" width="120" height="60" as="geometry" />
        </mxCell>
        <mxCell id="pV8JznTByNGqoE5kzML4-108" value="M" style="edgeStyle=orthogonalEdgeStyle;rounded=0;orthogonalLoop=1;jettySize=auto;html=1;exitX=0.5;exitY=0;exitDx=0;exitDy=0;endArrow=none;endFill=0;entryX=0.5;entryY=1;entryDx=0;entryDy=0;" parent="1" source="pV8JznTByNGqoE5kzML4-106" target="pV8JznTByNGqoE5kzML4-107" edge="1">
          <mxGeometry relative="1" as="geometry">
            <mxPoint x="-1580" y="670" as="targetPoint" />
          </mxGeometry>
        </mxCell>
        <mxCell id="pV8JznTByNGqoE5kzML4-114" value="Salary_Records" style="whiteSpace=wrap;html=1;align=center;" parent="1" vertex="1">
          <mxGeometry x="-1460" y="800" width="100" height="40" as="geometry" />
        </mxCell>
        <mxCell id="pV8JznTByNGqoE5kzML4-117" value="M" style="edgeStyle=orthogonalEdgeStyle;rounded=0;orthogonalLoop=1;jettySize=auto;html=1;exitX=0.5;exitY=1;exitDx=0;exitDy=0;entryX=0.5;entryY=0;entryDx=0;entryDy=0;endArrow=none;endFill=0;" parent="1" source="pV8JznTByNGqoE5kzML4-115" target="pV8JznTByNGqoE5kzML4-114" edge="1">
          <mxGeometry relative="1" as="geometry" />
        </mxCell>
        <mxCell id="pV8JznTByNGqoE5kzML4-115" value="Receives Salary" style="shape=rhombus;perimeter=rhombusPerimeter;whiteSpace=wrap;html=1;align=center;" parent="1" vertex="1">
          <mxGeometry x="-1470" y="690" width="120" height="60" as="geometry" />
        </mxCell>
        <mxCell id="pV8JznTByNGqoE5kzML4-120" value="1" style="edgeStyle=orthogonalEdgeStyle;rounded=0;orthogonalLoop=1;jettySize=auto;html=1;exitX=1;exitY=0.5;exitDx=0;exitDy=0;entryX=0;entryY=0.5;entryDx=0;entryDy=0;endArrow=none;endFill=0;" parent="1" source="pV8JznTByNGqoE5kzML4-118" target="pV8JznTByNGqoE5kzML4-114" edge="1">
          <mxGeometry relative="1" as="geometry" />
        </mxCell>
        <mxCell id="pV8JznTByNGqoE5kzML4-118" value="Calculated From" style="shape=rhombus;perimeter=rhombusPerimeter;whiteSpace=wrap;html=1;align=center;" parent="1" vertex="1">
          <mxGeometry x="-1660" y="790" width="120" height="60" as="geometry" />
        </mxCell>
        <mxCell id="pV8JznTByNGqoE5kzML4-125" value="1" style="edgeStyle=orthogonalEdgeStyle;rounded=0;orthogonalLoop=1;jettySize=auto;html=1;exitX=0.5;exitY=1;exitDx=0;exitDy=0;entryX=0.5;entryY=0;entryDx=0;entryDy=0;" parent="1" source="pV8JznTByNGqoE5kzML4-122" target="pV8JznTByNGqoE5kzML4-123" edge="1">
          <mxGeometry relative="1" as="geometry" />
        </mxCell>
        <mxCell id="pV8JznTByNGqoE5kzML4-122" value="Management" style="whiteSpace=wrap;html=1;align=center;" parent="1" vertex="1">
          <mxGeometry x="-1460" y="60" width="100" height="40" as="geometry" />
        </mxCell>
        <mxCell id="pV8JznTByNGqoE5kzML4-124" value="M" style="edgeStyle=orthogonalEdgeStyle;rounded=0;orthogonalLoop=1;jettySize=auto;html=1;exitX=0.5;exitY=1;exitDx=0;exitDy=0;entryX=0.5;entryY=0;entryDx=0;entryDy=0;" parent="1" source="pV8JznTByNGqoE5kzML4-123" target="pV8JznTByNGqoE5kzML4-101" edge="1">
          <mxGeometry relative="1" as="geometry" />
        </mxCell>
        <mxCell id="pV8JznTByNGqoE5kzML4-123" value="Manages" style="shape=rhombus;perimeter=rhombusPerimeter;whiteSpace=wrap;html=1;align=center;" parent="1" vertex="1">
          <mxGeometry x="-1470" y="150" width="120" height="60" as="geometry" />
        </mxCell>
        <mxCell id="pV8JznTByNGqoE5kzML4-168" value="M" style="edgeStyle=orthogonalEdgeStyle;rounded=0;orthogonalLoop=1;jettySize=auto;html=1;exitX=1;exitY=0.5;exitDx=0;exitDy=0;entryX=0;entryY=0.5;entryDx=0;entryDy=0;endArrow=none;endFill=0;" parent="1" source="pV8JznTByNGqoE5kzML4-158" target="pV8JznTByNGqoE5kzML4-164" edge="1">
          <mxGeometry relative="1" as="geometry" />
        </mxCell>
        <mxCell id="pV8JznTByNGqoE5kzML4-174" value="M" style="edgeStyle=orthogonalEdgeStyle;rounded=0;orthogonalLoop=1;jettySize=auto;html=1;exitX=0.5;exitY=1;exitDx=0;exitDy=0;entryX=0.5;entryY=0;entryDx=0;entryDy=0;endArrow=none;endFill=0;" parent="1" source="pV8JznTByNGqoE5kzML4-158" target="pV8JznTByNGqoE5kzML4-166" edge="1">
          <mxGeometry relative="1" as="geometry" />
        </mxCell>
        <mxCell id="pV8JznTByNGqoE5kzML4-175" value="M" style="edgeStyle=orthogonalEdgeStyle;rounded=0;orthogonalLoop=1;jettySize=auto;html=1;exitX=0.981;exitY=0.48;exitDx=0;exitDy=0;entryX=0.5;entryY=1;entryDx=0;entryDy=0;endArrow=none;endFill=0;exitPerimeter=0;" parent="1" source="pV8JznTByNGqoE5kzML4-181" target="pV8JznTByNGqoE5kzML4-165" edge="1">
          <mxGeometry relative="1" as="geometry" />
        </mxCell>
        <mxCell id="pV8JznTByNGqoE5kzML4-158" value="Manages" style="shape=rhombus;perimeter=rhombusPerimeter;whiteSpace=wrap;html=1;align=center;" parent="1" vertex="1">
          <mxGeometry x="-1280" y="600" width="120" height="60" as="geometry" />
        </mxCell>
        <mxCell id="pV8JznTByNGqoE5kzML4-164" value="Projects" style="whiteSpace=wrap;html=1;align=center;" parent="1" vertex="1">
          <mxGeometry x="-1060" y="610" width="100" height="40" as="geometry" />
        </mxCell>
        <mxCell id="pV8JznTByNGqoE5kzML4-165" value="Orders" style="whiteSpace=wrap;html=1;align=center;" parent="1" vertex="1">
          <mxGeometry x="-1110" y="420" width="100" height="40" as="geometry" />
        </mxCell>
        <mxCell id="pV8JznTByNGqoE5kzML4-166" value="Stocks" style="whiteSpace=wrap;html=1;align=center;" parent="1" vertex="1">
          <mxGeometry x="-1270" y="780" width="100" height="40" as="geometry" />
        </mxCell>
        <mxCell id="pV8JznTByNGqoE5kzML4-179" value="1" style="edgeStyle=orthogonalEdgeStyle;rounded=0;orthogonalLoop=1;jettySize=auto;html=1;endArrow=none;endFill=0;" parent="1" source="pV8JznTByNGqoE5kzML4-176" target="pV8JznTByNGqoE5kzML4-177" edge="1">
          <mxGeometry relative="1" as="geometry" />
        </mxCell>
        <mxCell id="pV8JznTByNGqoE5kzML4-176" value="Customers" style="whiteSpace=wrap;html=1;align=center;" parent="1" vertex="1">
          <mxGeometry x="-1110" y="200" width="100" height="40" as="geometry" />
        </mxCell>
        <mxCell id="pV8JznTByNGqoE5kzML4-178" value="M" style="edgeStyle=orthogonalEdgeStyle;rounded=0;orthogonalLoop=1;jettySize=auto;html=1;endArrow=none;endFill=0;" parent="1" source="pV8JznTByNGqoE5kzML4-177" target="pV8JznTByNGqoE5kzML4-165" edge="1">
          <mxGeometry relative="1" as="geometry" />
        </mxCell>
        <mxCell id="pV8JznTByNGqoE5kzML4-177" value="Contains" style="shape=rhombus;perimeter=rhombusPerimeter;whiteSpace=wrap;html=1;align=center;" parent="1" vertex="1">
          <mxGeometry x="-1120" y="300" width="120" height="60" as="geometry" />
        </mxCell>
        <mxCell id="pV8JznTByNGqoE5kzML4-181" value="Manages" style="shape=rhombus;perimeter=rhombusPerimeter;whiteSpace=wrap;html=1;align=center;" parent="1" vertex="1">
          <mxGeometry x="-1275" y="490" width="120" height="60" as="geometry" />
        </mxCell>
        <mxCell id="pV8JznTByNGqoE5kzML4-182" style="edgeStyle=orthogonalEdgeStyle;rounded=0;orthogonalLoop=1;jettySize=auto;html=1;exitX=0;exitY=0.5;exitDx=0;exitDy=0;entryX=0.992;entryY=0.145;entryDx=0;entryDy=0;entryPerimeter=0;" parent="1" source="pV8JznTByNGqoE5kzML4-181" target="pV8JznTByNGqoE5kzML4-89" edge="1">
          <mxGeometry relative="1" as="geometry" />
        </mxCell>
        <mxCell id="0pqv0-jL20OYZXibZxeW-47" style="rounded=0;orthogonalLoop=1;jettySize=auto;html=1;exitX=1;exitY=0.5;exitDx=0;exitDy=0;entryX=0;entryY=0.5;entryDx=0;entryDy=0;" edge="1" parent="1" source="0pqv0-jL20OYZXibZxeW-44" target="0pqv0-jL20OYZXibZxeW-46">
          <mxGeometry relative="1" as="geometry" />
        </mxCell>
        <mxCell id="0pqv0-jL20OYZXibZxeW-73" style="rounded=0;orthogonalLoop=1;jettySize=auto;html=1;exitX=0.5;exitY=1;exitDx=0;exitDy=0;entryX=0;entryY=0.5;entryDx=0;entryDy=0;" edge="1" parent="1" source="0pqv0-jL20OYZXibZxeW-44" target="0pqv0-jL20OYZXibZxeW-66">
          <mxGeometry relative="1" as="geometry">
            <mxPoint x="-1520" y="1170" as="targetPoint" />
          </mxGeometry>
        </mxCell>
        <mxCell id="0pqv0-jL20OYZXibZxeW-82" style="rounded=0;orthogonalLoop=1;jettySize=auto;html=1;exitX=0.5;exitY=1;exitDx=0;exitDy=0;entryX=0.5;entryY=0;entryDx=0;entryDy=0;" edge="1" parent="1" source="0pqv0-jL20OYZXibZxeW-44" target="0pqv0-jL20OYZXibZxeW-57">
          <mxGeometry relative="1" as="geometry" />
        </mxCell>
        <mxCell id="0pqv0-jL20OYZXibZxeW-84" style="rounded=0;orthogonalLoop=1;jettySize=auto;html=1;exitX=0.5;exitY=1;exitDx=0;exitDy=0;entryX=0;entryY=0.5;entryDx=0;entryDy=0;" edge="1" parent="1" source="0pqv0-jL20OYZXibZxeW-44" target="0pqv0-jL20OYZXibZxeW-58">
          <mxGeometry relative="1" as="geometry" />
        </mxCell>
        <mxCell id="0pqv0-jL20OYZXibZxeW-89" style="rounded=0;orthogonalLoop=1;jettySize=auto;html=1;exitX=0.5;exitY=1;exitDx=0;exitDy=0;entryX=0;entryY=0.5;entryDx=0;entryDy=0;" edge="1" parent="1" source="0pqv0-jL20OYZXibZxeW-44" target="0pqv0-jL20OYZXibZxeW-87">
          <mxGeometry relative="1" as="geometry" />
        </mxCell>
        <mxCell id="0pqv0-jL20OYZXibZxeW-90" style="rounded=0;orthogonalLoop=1;jettySize=auto;html=1;exitX=0.5;exitY=1;exitDx=0;exitDy=0;entryX=0;entryY=0.5;entryDx=0;entryDy=0;" edge="1" parent="1" source="0pqv0-jL20OYZXibZxeW-44" target="0pqv0-jL20OYZXibZxeW-59">
          <mxGeometry relative="1" as="geometry" />
        </mxCell>
        <mxCell id="0pqv0-jL20OYZXibZxeW-112" style="rounded=0;orthogonalLoop=1;jettySize=auto;html=1;exitX=0;exitY=0.5;exitDx=0;exitDy=0;entryX=1;entryY=0.5;entryDx=0;entryDy=0;" edge="1" parent="1" source="0pqv0-jL20OYZXibZxeW-44" target="0pqv0-jL20OYZXibZxeW-110">
          <mxGeometry relative="1" as="geometry" />
        </mxCell>
        <mxCell id="0pqv0-jL20OYZXibZxeW-44" value="Management" style="whiteSpace=wrap;html=1;align=center;" vertex="1" parent="1">
          <mxGeometry x="-1820" y="1260" width="100" height="40" as="geometry" />
        </mxCell>
        <mxCell id="0pqv0-jL20OYZXibZxeW-95" style="edgeStyle=orthogonalEdgeStyle;rounded=0;orthogonalLoop=1;jettySize=auto;html=1;exitX=0.5;exitY=1;exitDx=0;exitDy=0;entryX=0.5;entryY=0;entryDx=0;entryDy=0;" edge="1" parent="1" source="0pqv0-jL20OYZXibZxeW-45" target="0pqv0-jL20OYZXibZxeW-69">
          <mxGeometry relative="1" as="geometry" />
        </mxCell>
        <mxCell id="0pqv0-jL20OYZXibZxeW-45" value="Store" style="whiteSpace=wrap;html=1;align=center;" vertex="1" parent="1">
          <mxGeometry x="-1310" y="990" width="100" height="40" as="geometry" />
        </mxCell>
        <mxCell id="0pqv0-jL20OYZXibZxeW-48" style="edgeStyle=orthogonalEdgeStyle;rounded=0;orthogonalLoop=1;jettySize=auto;html=1;exitX=1;exitY=0.5;exitDx=0;exitDy=0;entryX=0;entryY=0.5;entryDx=0;entryDy=0;" edge="1" parent="1" source="0pqv0-jL20OYZXibZxeW-46" target="0pqv0-jL20OYZXibZxeW-45">
          <mxGeometry relative="1" as="geometry" />
        </mxCell>
        <mxCell id="0pqv0-jL20OYZXibZxeW-46" value="Manages" style="shape=rhombus;perimeter=rhombusPerimeter;whiteSpace=wrap;html=1;align=center;" vertex="1" parent="1">
          <mxGeometry x="-1510" y="980" width="120" height="60" as="geometry" />
        </mxCell>
        <mxCell id="0pqv0-jL20OYZXibZxeW-49" value="Products" style="whiteSpace=wrap;html=1;align=center;" vertex="1" parent="1">
          <mxGeometry x="-1310" y="1520" width="100" height="40" as="geometry" />
        </mxCell>
        <mxCell id="0pqv0-jL20OYZXibZxeW-50" value="Deliveries" style="whiteSpace=wrap;html=1;align=center;" vertex="1" parent="1">
          <mxGeometry x="-1310" y="1610" width="100" height="40" as="geometry" />
        </mxCell>
        <mxCell id="0pqv0-jL20OYZXibZxeW-53" value="Materials" style="whiteSpace=wrap;html=1;align=center;" vertex="1" parent="1">
          <mxGeometry x="-1820" y="1690" width="100" height="40" as="geometry" />
        </mxCell>
        <mxCell id="0pqv0-jL20OYZXibZxeW-104" style="rounded=0;orthogonalLoop=1;jettySize=auto;html=1;exitX=0.5;exitY=1;exitDx=0;exitDy=0;entryX=0.5;entryY=0;entryDx=0;entryDy=0;" edge="1" parent="1" source="0pqv0-jL20OYZXibZxeW-55" target="0pqv0-jL20OYZXibZxeW-103">
          <mxGeometry relative="1" as="geometry" />
        </mxCell>
        <mxCell id="0pqv0-jL20OYZXibZxeW-55" value="Employees" style="whiteSpace=wrap;html=1;align=center;" vertex="1" parent="1">
          <mxGeometry x="-1310" y="1160" width="100" height="40" as="geometry" />
        </mxCell>
        <mxCell id="0pqv0-jL20OYZXibZxeW-81" style="rounded=0;orthogonalLoop=1;jettySize=auto;html=1;exitX=0.5;exitY=1;exitDx=0;exitDy=0;entryX=0.5;entryY=0;entryDx=0;entryDy=0;" edge="1" parent="1" source="0pqv0-jL20OYZXibZxeW-57" target="0pqv0-jL20OYZXibZxeW-53">
          <mxGeometry relative="1" as="geometry">
            <mxPoint x="-1770" y="1530" as="sourcePoint" />
            <mxPoint x="-1720" y="1700" as="targetPoint" />
          </mxGeometry>
        </mxCell>
        <mxCell id="0pqv0-jL20OYZXibZxeW-57" value="Allocate" style="shape=rhombus;perimeter=rhombusPerimeter;whiteSpace=wrap;html=1;align=center;" vertex="1" parent="1">
          <mxGeometry x="-1830" y="1460" width="120" height="60" as="geometry" />
        </mxCell>
        <mxCell id="0pqv0-jL20OYZXibZxeW-83" style="rounded=0;orthogonalLoop=1;jettySize=auto;html=1;exitX=1;exitY=0.5;exitDx=0;exitDy=0;entryX=0;entryY=0.5;entryDx=0;entryDy=0;" edge="1" parent="1" source="0pqv0-jL20OYZXibZxeW-58" target="0pqv0-jL20OYZXibZxeW-49">
          <mxGeometry relative="1" as="geometry" />
        </mxCell>
        <mxCell id="0pqv0-jL20OYZXibZxeW-58" value="Monitors" style="shape=rhombus;perimeter=rhombusPerimeter;whiteSpace=wrap;html=1;align=center;" vertex="1" parent="1">
          <mxGeometry x="-1500" y="1470" width="120" height="60" as="geometry" />
        </mxCell>
        <mxCell id="0pqv0-jL20OYZXibZxeW-61" style="rounded=0;orthogonalLoop=1;jettySize=auto;html=1;exitX=1;exitY=1;exitDx=0;exitDy=0;entryX=0;entryY=0.5;entryDx=0;entryDy=0;" edge="1" parent="1" source="0pqv0-jL20OYZXibZxeW-59" target="0pqv0-jL20OYZXibZxeW-50">
          <mxGeometry relative="1" as="geometry">
            <mxPoint x="-1090" y="1490" as="targetPoint" />
          </mxGeometry>
        </mxCell>
        <mxCell id="0pqv0-jL20OYZXibZxeW-59" value="Tracks" style="shape=rhombus;perimeter=rhombusPerimeter;whiteSpace=wrap;html=1;align=center;" vertex="1" parent="1">
          <mxGeometry x="-1510" y="1580" width="120" height="60" as="geometry" />
        </mxCell>
        <mxCell id="0pqv0-jL20OYZXibZxeW-74" style="rounded=0;orthogonalLoop=1;jettySize=auto;html=1;exitX=1;exitY=0.5;exitDx=0;exitDy=0;" edge="1" parent="1" source="0pqv0-jL20OYZXibZxeW-66" target="0pqv0-jL20OYZXibZxeW-55">
          <mxGeometry relative="1" as="geometry">
            <mxPoint x="-1390" y="1190" as="sourcePoint" />
          </mxGeometry>
        </mxCell>
        <mxCell id="0pqv0-jL20OYZXibZxeW-66" value="Supervise" style="shape=rhombus;perimeter=rhombusPerimeter;whiteSpace=wrap;html=1;align=center;" vertex="1" parent="1">
          <mxGeometry x="-1510" y="1150" width="120" height="60" as="geometry" />
        </mxCell>
        <mxCell id="0pqv0-jL20OYZXibZxeW-96" style="edgeStyle=orthogonalEdgeStyle;rounded=0;orthogonalLoop=1;jettySize=auto;html=1;exitX=0.5;exitY=1;exitDx=0;exitDy=0;" edge="1" parent="1" source="0pqv0-jL20OYZXibZxeW-69" target="0pqv0-jL20OYZXibZxeW-55">
          <mxGeometry relative="1" as="geometry" />
        </mxCell>
        <mxCell id="0pqv0-jL20OYZXibZxeW-69" value="Works By" style="shape=rhombus;perimeter=rhombusPerimeter;whiteSpace=wrap;html=1;align=center;" vertex="1" parent="1">
          <mxGeometry x="-1320" y="1070" width="120" height="60" as="geometry" />
        </mxCell>
        <mxCell id="0pqv0-jL20OYZXibZxeW-108" value="" style="edgeStyle=orthogonalEdgeStyle;rounded=0;orthogonalLoop=1;jettySize=auto;html=1;" edge="1" parent="1" source="0pqv0-jL20OYZXibZxeW-85" target="0pqv0-jL20OYZXibZxeW-107">
          <mxGeometry relative="1" as="geometry" />
        </mxCell>
        <mxCell id="0pqv0-jL20OYZXibZxeW-85" value="Customers" style="whiteSpace=wrap;html=1;align=center;" vertex="1" parent="1">
          <mxGeometry x="-1310" y="1330" width="100" height="40" as="geometry" />
        </mxCell>
        <mxCell id="0pqv0-jL20OYZXibZxeW-88" value="" style="rounded=0;orthogonalLoop=1;jettySize=auto;html=1;" edge="1" parent="1" source="0pqv0-jL20OYZXibZxeW-87" target="0pqv0-jL20OYZXibZxeW-85">
          <mxGeometry relative="1" as="geometry" />
        </mxCell>
        <mxCell id="0pqv0-jL20OYZXibZxeW-87" value="Manages" style="shape=rhombus;perimeter=rhombusPerimeter;whiteSpace=wrap;html=1;align=center;" vertex="1" parent="1">
          <mxGeometry x="-1512" y="1280" width="120" height="60" as="geometry" />
        </mxCell>
        <mxCell id="0pqv0-jL20OYZXibZxeW-105" style="rounded=0;orthogonalLoop=1;jettySize=auto;html=1;exitX=0.5;exitY=1;exitDx=0;exitDy=0;entryX=0.5;entryY=0;entryDx=0;entryDy=0;" edge="1" parent="1" source="0pqv0-jL20OYZXibZxeW-103" target="0pqv0-jL20OYZXibZxeW-85">
          <mxGeometry relative="1" as="geometry" />
        </mxCell>
        <mxCell id="0pqv0-jL20OYZXibZxeW-103" value="Take Order" style="shape=rhombus;perimeter=rhombusPerimeter;whiteSpace=wrap;html=1;align=center;" vertex="1" parent="1">
          <mxGeometry x="-1320" y="1240" width="120" height="60" as="geometry" />
        </mxCell>
        <mxCell id="0pqv0-jL20OYZXibZxeW-109" style="edgeStyle=orthogonalEdgeStyle;rounded=0;orthogonalLoop=1;jettySize=auto;html=1;exitX=0.5;exitY=1;exitDx=0;exitDy=0;entryX=0.5;entryY=0;entryDx=0;entryDy=0;" edge="1" parent="1" source="0pqv0-jL20OYZXibZxeW-107" target="0pqv0-jL20OYZXibZxeW-49">
          <mxGeometry relative="1" as="geometry" />
        </mxCell>
        <mxCell id="0pqv0-jL20OYZXibZxeW-107" value="Order Items" style="shape=rhombus;perimeter=rhombusPerimeter;whiteSpace=wrap;html=1;align=center;" vertex="1" parent="1">
          <mxGeometry x="-1320" y="1400" width="120" height="60" as="geometry" />
        </mxCell>
        <mxCell id="0pqv0-jL20OYZXibZxeW-113" style="edgeStyle=orthogonalEdgeStyle;rounded=0;orthogonalLoop=1;jettySize=auto;html=1;exitX=0;exitY=0.5;exitDx=0;exitDy=0;" edge="1" parent="1" source="0pqv0-jL20OYZXibZxeW-110" target="0pqv0-jL20OYZXibZxeW-111">
          <mxGeometry relative="1" as="geometry" />
        </mxCell>
        <mxCell id="0pqv0-jL20OYZXibZxeW-110" value="Monitor" style="shape=rhombus;perimeter=rhombusPerimeter;whiteSpace=wrap;html=1;align=center;" vertex="1" parent="1">
          <mxGeometry x="-2040" y="1250" width="120" height="60" as="geometry" />
        </mxCell>
        <mxCell id="0pqv0-jL20OYZXibZxeW-111" value="Stocks" style="whiteSpace=wrap;html=1;align=center;" vertex="1" parent="1">
          <mxGeometry x="-2230" y="1260" width="100" height="40" as="geometry" />
        </mxCell>
      </root>
    </mxGraphModel>
  </diagram>
</mxfile>
